<svg
	version="1.1" id="Layer_1" xmlns="http://www.w3.org/2000/svg" xmlns:xlink="http://www.w3.org/1999/xlink"
	x="0px" y="0px"
	width="100%"
	viewBox="0 0 421 118"
	enable-background="new 0 0 421 118"
	xml:space="preserve"
>
<path fill="#FDFDFD" opacity="1.000000" stroke="none" 
	d="
M277.000000,119.000000 
	C184.666672,119.000000 92.833359,119.000000 1.000025,119.000000 
	C1.000016,79.666679 1.000016,40.333366 1.000008,1.000035 
	C141.333298,1.000023 281.666595,1.000023 421.999939,1.000012 
	C421.999939,40.333294 421.999939,79.666588 421.999969,118.999939 
	C373.833344,119.000000 325.666656,119.000000 277.000000,119.000000 
M176.043808,50.622963 
	C175.393936,45.140587 175.689194,39.322922 173.889053,34.248619 
	C170.577118,24.912834 163.981918,18.687391 154.056244,15.408929 
	C142.547729,11.607642 127.163696,15.228768 119.280632,24.391481 
	C109.653244,35.581680 108.415276,51.964981 116.536850,64.347031 
	C123.053932,74.282883 132.890808,79.332474 144.336044,79.021217 
	C160.512619,78.581284 173.677979,67.219452 176.043808,50.622963 
M202.229431,70.185951 
	C203.278687,69.008522 204.881363,67.995560 205.288025,66.627167 
	C208.076523,57.244194 210.614426,47.786743 213.611923,36.988331 
	C216.931427,48.927052 219.857513,59.450882 222.744324,69.833366 
	C231.201187,70.684349 231.203384,70.684959 233.244858,63.378365 
	C235.435425,55.538197 237.647583,47.703938 239.801331,39.853657 
	C241.724548,32.843681 243.580978,25.815384 245.450134,18.857496 
	C241.591873,17.000984 240.740799,19.177391 240.034149,21.840237 
	C237.689743,30.674360 235.295258,39.495399 232.873932,48.308807 
	C231.631073,52.832676 230.290497,57.329697 228.636795,63.081509 
	C224.781616,49.017841 221.057968,36.424774 217.964020,23.678862 
	C216.654816,18.285322 213.985092,17.110418 208.322250,18.890102 
	C213.495331,26.819910 209.577499,34.482281 207.562744,42.238167 
	C205.866364,48.768398 203.939972,55.238876 201.720901,63.140560 
	C197.864349,49.049732 194.415588,36.461311 190.974487,23.870800 
	C189.195328,17.361118 189.101120,17.301563 181.788727,18.857161 
	C186.010864,34.230286 190.424423,49.535492 194.317276,64.972008 
	C195.391510,69.231651 197.151825,70.937675 202.229431,70.185951 
M83.138229,55.329571 
	C85.424965,58.604965 88.118546,61.674568 89.903679,65.203690 
	C92.623726,70.581116 96.689117,71.001732 102.144348,69.646423 
	C97.065773,62.378204 92.190857,55.401443 87.189606,48.243893 
	C88.562592,47.699158 89.485008,47.339012 90.403030,46.968021 
	C97.239250,44.205433 100.668594,39.510319 100.561195,33.064842 
	C100.460587,27.026873 96.486473,20.839827 89.847984,19.628265 
	C81.516685,18.107754 72.885033,18.232969 64.410095,17.649799 
	C64.410095,35.929607 64.410095,52.870304 64.410095,69.920601 
	C66.935982,69.920601 69.184097,69.920601 71.985199,69.920601 
	C71.985199,62.919632 71.985199,56.180206 71.985199,49.807430 
	C77.876488,47.442848 80.463669,50.817455 83.138229,55.329571 
M363.167023,65.692604 
	C372.572083,56.054993 373.988586,44.699986 369.768402,32.479797 
	C366.456451,22.889545 358.032104,17.404501 347.875916,17.441626 
	C337.667755,17.478939 329.154022,22.844673 326.100403,32.511955 
	C324.447205,37.745556 323.663116,43.667702 324.207184,49.107185 
	C326.195526,68.985687 346.851990,77.952705 363.167023,65.692604 
M281.872772,60.632950 
	C275.953400,48.729565 269.994659,36.845562 264.129089,24.915733 
	C260.455231,17.443533 260.518127,17.412601 252.016266,18.665665 
	C251.947479,19.728159 251.812225,20.853815 251.811127,21.979603 
	C251.796844,36.636433 251.801193,51.293278 251.802536,65.950119 
	C251.802612,66.782715 251.579315,67.722160 251.891785,68.417961 
	C252.206741,69.119293 252.989761,69.755859 253.717209,70.046089 
	C253.965347,70.145088 254.992432,69.164108 255.095047,68.577171 
	C255.321396,67.282539 255.196701,65.924698 255.196976,64.592651 
	C255.199646,51.378513 255.198593,38.164375 255.198593,24.950239 
	C256.663879,26.005535 257.408417,27.216507 258.037872,28.484566 
	C263.946014,40.386448 269.824982,52.302814 275.732330,64.205086 
	C279.080505,70.951057 279.097290,70.942726 287.553162,69.663666 
	C287.553162,53.278927 287.590363,36.820187 287.446198,20.363029 
	C287.438782,19.516314 285.877991,18.683203 285.040405,17.843758 
	C284.649139,18.118742 284.257904,18.393726 283.866638,18.668711 
	C283.866638,33.520634 283.866638,48.372559 283.866638,64.576988 
	C282.832520,62.703514 282.456604,62.022465 281.872772,60.632950 
M50.567879,65.313278 
	C42.224453,69.627731 34.322083,68.502846 28.824497,62.218155 
	C20.081585,52.223492 21.397644,33.673748 31.464943,25.001251 
	C38.909756,18.587896 49.363804,19.882168 54.940365,27.880680 
	C55.329674,28.439066 55.949059,28.837044 56.461449,29.309614 
	C56.193382,23.737530 52.844486,20.761189 48.307938,18.900892 
	C36.830917,14.194519 23.088808,19.430922 17.851702,30.698734 
	C13.531794,39.993160 13.665372,49.508308 18.208191,58.648144 
	C24.639868,71.588242 42.648220,75.759697 53.096062,66.825638 
	C55.231880,64.999268 56.653679,62.337898 58.404613,60.061432 
	C58.034153,59.783138 57.663696,59.504845 57.293236,59.226555 
	C55.265041,61.125988 53.236851,63.025421 50.567879,65.313278 
M403.397400,44.211277 
	C404.652557,43.605099 405.907715,42.998920 407.162872,42.392746 
	C406.002258,41.858242 404.854584,40.897667 403.678864,40.862068 
	C398.234039,40.697216 392.781464,40.789219 387.132904,40.789219 
	C387.132904,34.195080 387.132904,28.119564 387.132904,21.605852 
	C395.138794,21.605852 402.902191,21.605852 410.665588,21.605852 
	C410.890045,21.047779 411.114471,20.489706 411.338898,19.931635 
	C410.235931,19.328171 409.152985,18.251646 408.026459,18.203876 
	C403.371277,18.006487 398.702881,18.120554 394.039337,18.120415 
	C389.123444,18.120268 384.207520,18.120382 379.381165,18.120382 
	C379.381165,35.901196 379.381165,52.837154 379.381165,69.966644 
	C381.893829,69.966644 384.143341,69.966644 386.958466,69.966644 
	C386.958466,61.344963 386.958466,52.955898 386.958466,44.211506 
	C392.484131,44.211506 397.450592,44.211506 403.397400,44.211277 
M316.502472,96.087166 
	C310.849457,96.087166 305.196442,96.087166 299.543427,96.087166 
	C299.566559,96.698959 299.589661,97.310753 299.612793,97.922546 
	C333.322632,97.922546 367.032501,97.922546 400.742371,97.922546 
	C400.747437,97.310760 400.752533,96.698967 400.757629,96.087181 
	C373.005493,96.087181 345.253387,96.087181 316.502472,96.087166 
M117.404755,96.087166 
	C86.675056,96.087166 55.945351,96.087166 25.215651,96.087166 
	C28.951540,99.402252 123.509163,99.218697 127.717697,96.087181 
	C123.734489,96.087181 121.050903,96.087181 117.404755,96.087166 
M253.478119,105.534180 
	C254.581970,103.484825 255.685837,101.435478 257.120453,98.772049 
	C259.095978,101.138763 261.192230,103.650154 263.288513,106.161537 
	C263.675262,105.840263 264.061981,105.518990 264.448730,105.197708 
	C263.424774,103.196548 262.400848,101.195389 261.376923,99.194229 
	C262.971466,96.635284 264.576050,93.329414 263.546539,91.533501 
	C261.296112,87.607796 257.032898,89.033951 253.150085,89.549622 
	C253.150085,94.818001 253.150085,99.780807 253.478119,105.534180 
M183.580795,102.881706 
	C184.493759,103.962852 185.406738,105.043991 186.319702,106.125130 
	C186.708847,105.863716 187.097977,105.602303 187.487122,105.340889 
	C186.469345,103.213028 185.451584,101.085167 184.433807,98.957314 
	C184.862076,98.971352 185.290344,98.985390 185.718628,98.999435 
	C186.087448,96.484467 187.587860,93.324928 186.596573,91.584732 
	C184.324265,87.595627 180.078873,89.131851 176.835953,89.437859 
	C176.835953,95.190262 176.835953,100.534370 176.835953,105.878487 
	C177.314072,105.896713 177.792191,105.914940 178.270325,105.933167 
	C178.662903,103.604309 179.055481,101.275459 179.704620,97.424652 
	C181.404556,99.797340 182.276138,101.013847 183.580795,102.881706 
M282.053101,105.391891 
	C282.720734,104.909760 283.892334,104.492332 283.964050,103.933693 
	C284.205597,102.052132 284.055969,100.120346 284.055969,98.415947 
	C286.822571,98.415947 288.890442,98.415947 290.736389,98.415947 
	C291.079071,101.158211 291.373871,103.517662 291.668701,105.877106 
	C292.266724,105.815308 292.864746,105.753502 293.462738,105.691704 
	C293.596069,100.205452 294.191528,94.703888 293.075714,89.259010 
	C292.539124,89.244148 292.002502,89.229286 291.465912,89.214432 
	C291.241852,91.360214 291.017792,93.505997 290.791840,95.669769 
	C288.465332,95.669769 286.389404,95.669769 284.335541,95.669769 
	C284.097748,93.297943 283.886444,91.190331 283.675140,89.082710 
	C283.046356,89.107147 282.417542,89.131584 281.788757,89.156021 
	C281.788757,94.296616 281.788757,99.437218 282.053101,105.391891 
M231.073318,105.408531 
	C231.638977,105.389832 232.699966,105.377777 232.700302,105.351501 
	C232.772705,99.950378 232.770309,94.548264 232.770309,89.146172 
	C232.241470,89.129730 231.712631,89.113297 231.183777,89.096855 
	C230.932465,91.262276 230.681152,93.427704 230.412415,95.743301 
	C228.200974,95.743301 226.100876,95.743301 224.133087,95.743301 
	C223.674042,93.383644 223.257019,91.240021 222.839996,89.096390 
	C222.447037,89.178322 222.054077,89.260246 221.661118,89.342178 
	C221.661118,94.818970 221.661118,100.295753 221.661118,105.772545 
	C222.086029,105.826363 222.510925,105.880180 222.935837,105.933998 
	C223.169724,104.810371 223.480377,103.696045 223.618011,102.560745 
	C223.788651,101.153206 223.815948,99.728294 223.901779,98.364677 
	C226.345749,98.364677 228.400482,98.364677 230.800430,98.364677 
	C230.800430,100.642563 230.800430,102.617752 231.073318,105.408531 
M170.676575,104.222725 
	C171.429291,102.768433 172.529678,101.391258 172.872406,99.846031 
	C174.123032,94.207390 171.471268,89.017662 167.028671,89.163971 
	C164.643509,89.242538 161.431427,90.745796 160.170090,92.650757 
	C157.854218,96.148346 158.161606,100.402206 161.073654,103.772194 
	C163.616425,106.714813 166.822327,106.751945 170.676575,104.222725 
M142.662781,99.732719 
	C143.180359,103.147926 141.688843,104.711433 138.448959,103.488548 
	C134.502197,101.998856 134.393539,98.431969 135.209702,95.068138 
	C135.976761,91.906693 138.201553,90.382156 141.634766,91.367592 
	C142.449112,91.601349 143.295456,91.723579 145.088120,92.097633 
	C144.102539,90.796402 143.849060,90.134659 143.379868,89.894753 
	C140.051575,88.192947 136.923660,88.524368 134.332016,91.300735 
	C131.777298,94.037544 131.130936,100.282654 133.944702,102.819588 
	C135.941635,104.620071 139.595993,105.910606 142.166275,105.460899 
	C147.009476,104.613495 144.460541,100.293922 145.067352,96.928627 
	C142.790115,97.044075 141.002380,97.134705 139.214645,97.225342 
	C139.190582,97.600204 139.166534,97.975067 139.142487,98.349930 
	C140.123947,98.635666 141.105408,98.921410 142.662781,99.732719 
M246.935440,92.667572 
	C246.834259,95.318176 247.070587,98.046158 246.488174,100.586426 
	C246.201096,101.838516 244.140121,103.776657 243.343445,103.575569 
	C241.981705,103.231865 240.269196,101.599487 239.982895,100.239197 
	C239.411911,97.526230 239.779861,94.626343 239.604614,91.813339 
	C239.546677,90.883415 239.011185,89.983238 238.694046,89.069458 
	C238.092178,89.148354 237.490295,89.227257 236.888412,89.306152 
	C237.252945,93.893867 237.247513,98.561478 238.210327,103.019989 
	C238.494400,104.335464 241.529022,105.861557 243.276718,105.829956 
	C245.022614,105.798378 247.986771,104.168457 248.233780,102.834869 
	C249.054672,98.403084 248.893509,93.789398 249.108902,89.245453 
	C248.575546,89.220490 248.042206,89.195526 247.508850,89.170555 
	C247.318207,90.037811 247.127563,90.905060 246.935440,92.667572 
M209.313553,100.950157 
	C209.452667,98.389297 208.645920,94.989746 209.978394,93.486984 
	C211.527145,91.740265 214.950912,91.656067 217.351730,90.914886 
	C214.518738,88.149094 210.848495,88.132584 208.129715,91.219704 
	C204.945618,94.835197 205.451263,101.968040 209.084671,104.691025 
	C212.213577,107.035912 215.666977,106.368835 217.470642,103.691841 
	C215.069107,103.065613 212.425095,102.376167 209.313553,100.950157 
M194.903229,95.248489 
	C194.809433,95.385750 194.736237,95.546448 194.615219,95.652702 
	C194.522018,95.734505 194.275482,95.811752 194.255432,95.782516 
	C192.670715,93.470284 191.101639,91.147339 189.531372,88.825195 
	C189.256805,89.030388 188.982239,89.235588 188.707672,89.440781 
	C190.495926,94.859200 192.284180,100.277618 194.379791,106.627335 
	C195.080933,103.197472 195.380432,100.400238 196.257996,97.797913 
	C197.218323,94.950081 198.712784,92.282372 199.974457,89.536156 
	C199.486862,89.272598 198.999252,89.009041 198.511642,88.745483 
	C197.406509,90.686981 196.301392,92.628479 194.903229,95.248489 
M267.030548,100.851555 
	C270.385437,107.039474 274.803192,107.895515 278.527405,103.079330 
	C271.049866,103.415001 268.646088,101.971283 269.139313,97.068451 
	C269.309174,95.380135 270.050903,92.993729 271.280548,92.344002 
	C273.144531,91.359093 275.663300,91.613327 277.771210,91.357231 
	C275.358307,87.627625 269.779388,88.060562 267.776367,92.744026 
	C266.853424,94.902077 267.147797,97.580742 267.030548,100.851555 
M148.267746,92.898727 
	C148.267746,97.155174 148.267746,101.411629 148.267746,106.096352 
	C152.026169,105.918526 155.016571,105.777046 158.006973,105.635559 
	C157.994705,105.097122 157.982437,104.558685 157.970169,104.020248 
	C155.779419,103.806099 153.588669,103.591942 150.499664,103.289986 
	C150.499664,98.525276 150.499664,93.798851 150.499664,89.072418 
	C150.038620,89.054604 149.577576,89.036781 149.116531,89.018959 
	C148.834351,90.014824 148.552185,91.010689 148.267746,92.898727 
z"/>
<path fill="#404040" opacity="1.000000" stroke="none" 
	d="
M175.871368,51.005875 
	C173.677979,67.219452 160.512619,78.581284 144.336044,79.021217 
	C132.890808,79.332474 123.053932,74.282883 116.536850,64.347031 
	C108.415276,51.964981 109.653244,35.581680 119.280632,24.391481 
	C127.163696,15.228768 142.547729,11.607642 154.056244,15.408929 
	C163.981918,18.687391 170.577118,24.912834 173.889053,34.248619 
	C175.689194,39.322922 175.393936,45.140587 175.871368,51.005875 
M123.822342,57.519360 
	C125.095284,59.159882 126.300438,60.858723 127.652863,62.430866 
	C133.619507,69.366821 141.401550,70.810768 149.744461,68.741661 
	C159.060608,66.431190 164.733276,59.701824 166.730789,50.674194 
	C170.100616,35.444317 155.314789,19.345219 138.050430,23.613461 
	C125.712433,26.663769 114.903297,43.515633 123.822342,57.519360 
z"/>
<path fill="#3C3C3C" opacity="1.000000" stroke="none" 
	d="
M201.791199,70.187462 
	C197.151825,70.937675 195.391510,69.231651 194.317276,64.972008 
	C190.424423,49.535492 186.010864,34.230286 181.788727,18.857161 
	C189.101120,17.301563 189.195328,17.361118 190.974487,23.870800 
	C194.415588,36.461311 197.864349,49.049732 201.720901,63.140560 
	C203.939972,55.238876 205.866364,48.768398 207.562744,42.238167 
	C209.577499,34.482281 213.495331,26.819910 208.322250,18.890102 
	C213.985092,17.110418 216.654816,18.285322 217.964020,23.678862 
	C221.057968,36.424774 224.781616,49.017841 228.636795,63.081509 
	C230.290497,57.329697 231.631073,52.832676 232.873932,48.308807 
	C235.295258,39.495399 237.689743,30.674360 240.034149,21.840237 
	C240.740799,19.177391 241.591873,17.000984 245.450134,18.857496 
	C243.580978,25.815384 241.724548,32.843681 239.801331,39.853657 
	C237.647583,47.703938 235.435425,55.538197 233.244858,63.378365 
	C231.203384,70.684959 231.201187,70.684349 222.744324,69.833366 
	C219.857513,59.450882 216.931427,48.927052 213.611923,36.988331 
	C210.614426,47.786743 208.076523,57.244194 205.288025,66.627167 
	C204.881363,67.995560 203.278687,69.008522 201.791199,70.187462 
z"/>
<path fill="#3E3E3E" opacity="1.000000" stroke="none" 
	d="
M82.968246,55.008781 
	C80.463669,50.817455 77.876488,47.442848 71.985199,49.807430 
	C71.985199,56.180206 71.985199,62.919632 71.985199,69.920601 
	C69.184097,69.920601 66.935982,69.920601 64.410095,69.920601 
	C64.410095,52.870304 64.410095,35.929607 64.410095,17.649799 
	C72.885033,18.232969 81.516685,18.107754 89.847984,19.628265 
	C96.486473,20.839827 100.460587,27.026873 100.561195,33.064842 
	C100.668594,39.510319 97.239250,44.205433 90.403030,46.968021 
	C89.485008,47.339012 88.562592,47.699158 87.189606,48.243893 
	C92.190857,55.401443 97.065773,62.378204 102.144348,69.646423 
	C96.689117,71.001732 92.623726,70.581116 89.903679,65.203690 
	C88.118546,61.674568 85.424965,58.604965 82.968246,55.008781 
M83.499084,22.374111 
	C79.780350,22.044786 76.061623,21.715460 72.242302,21.377226 
	C72.242302,29.959484 72.242302,37.817482 72.242302,45.652779 
	C83.825867,46.044968 90.446739,42.912365 92.032303,36.481056 
	C93.474686,30.630507 90.853210,26.008194 83.499084,22.374111 
z"/>
<path fill="#3D3D3D" opacity="1.000000" stroke="none" 
	d="
M362.887024,65.919914 
	C346.851990,77.952705 326.195526,68.985687 324.207184,49.107185 
	C323.663116,43.667702 324.447205,37.745556 326.100403,32.511955 
	C329.154022,22.844673 337.667755,17.478939 347.875916,17.441626 
	C358.032104,17.404501 366.456451,22.889545 369.768402,32.479797 
	C373.988586,44.699986 372.572083,56.054993 362.887024,65.919914 
M331.257629,40.100441 
	C330.502991,47.592884 331.544434,54.761684 335.879669,61.055805 
	C342.442078,70.583389 354.093292,70.385345 360.033875,60.456921 
	C366.129028,50.270172 366.238617,39.445042 360.714355,29.080021 
	C354.973389,18.308409 341.615692,18.145477 335.294891,28.597399 
	C333.375000,31.772085 332.662933,35.677235 331.257629,40.100441 
z"/>
<path fill="#3F3F3F" opacity="1.000000" stroke="none" 
	d="
M281.976746,60.987183 
	C282.456604,62.022465 282.832520,62.703514 283.866638,64.576988 
	C283.866638,48.372559 283.866638,33.520634 283.866638,18.668711 
	C284.257904,18.393726 284.649139,18.118742 285.040405,17.843758 
	C285.877991,18.683203 287.438782,19.516314 287.446198,20.363029 
	C287.590363,36.820187 287.553162,53.278927 287.553162,69.663666 
	C279.097290,70.942726 279.080505,70.951057 275.732330,64.205086 
	C269.824982,52.302814 263.946014,40.386448 258.037872,28.484566 
	C257.408417,27.216507 256.663879,26.005535 255.198593,24.950239 
	C255.198593,38.164375 255.199646,51.378513 255.196976,64.592651 
	C255.196701,65.924698 255.321396,67.282539 255.095047,68.577171 
	C254.992432,69.164108 253.965347,70.145088 253.717209,70.046089 
	C252.989761,69.755859 252.206741,69.119293 251.891785,68.417961 
	C251.579315,67.722160 251.802612,66.782715 251.802536,65.950119 
	C251.801193,51.293278 251.796844,36.636433 251.811127,21.979603 
	C251.812225,20.853815 251.947479,19.728159 252.016266,18.665665 
	C260.518127,17.412601 260.455231,17.443533 264.129089,24.915733 
	C269.994659,36.845562 275.953400,48.729565 281.976746,60.987183 
z"/>
<path fill="#3D3D3D" opacity="1.000000" stroke="none" 
	d="
M50.888268,65.119064 
	C53.236851,63.025421 55.265041,61.125988 57.293236,59.226555 
	C57.663696,59.504845 58.034153,59.783138 58.404613,60.061432 
	C56.653679,62.337898 55.231880,64.999268 53.096062,66.825638 
	C42.648220,75.759697 24.639868,71.588242 18.208191,58.648144 
	C13.665372,49.508308 13.531794,39.993160 17.851702,30.698734 
	C23.088808,19.430922 36.830917,14.194519 48.307938,18.900892 
	C52.844486,20.761189 56.193382,23.737530 56.461449,29.309614 
	C55.949059,28.837044 55.329674,28.439066 54.940365,27.880680 
	C49.363804,19.882168 38.909756,18.587896 31.464943,25.001251 
	C21.397644,33.673748 20.081585,52.223492 28.824497,62.218155 
	C34.322083,68.502846 42.224453,69.627731 50.888268,65.119064 
z"/>
<path fill="#434343" opacity="1.000000" stroke="none" 
	d="
M402.907227,44.211391 
	C397.450592,44.211506 392.484131,44.211506 386.958466,44.211506 
	C386.958466,52.955898 386.958466,61.344963 386.958466,69.966644 
	C384.143341,69.966644 381.893829,69.966644 379.381165,69.966644 
	C379.381165,52.837154 379.381165,35.901196 379.381165,18.120382 
	C384.207520,18.120382 389.123444,18.120268 394.039337,18.120415 
	C398.702881,18.120554 403.371277,18.006487 408.026459,18.203876 
	C409.152985,18.251646 410.235931,19.328171 411.338898,19.931635 
	C411.114471,20.489706 410.890045,21.047779 410.665588,21.605852 
	C402.902191,21.605852 395.138794,21.605852 387.132904,21.605852 
	C387.132904,28.119564 387.132904,34.195080 387.132904,40.789219 
	C392.781464,40.789219 398.234039,40.697216 403.678864,40.862068 
	C404.854584,40.897667 406.002258,41.858242 407.162872,42.392742 
	C405.907715,42.998920 404.652557,43.605099 402.907227,44.211391 
z"/>
<path fill="#4D4D4D" opacity="1.000000" stroke="none" 
	d="
M317.001892,96.087173 
	C345.253387,96.087181 373.005493,96.087181 400.757629,96.087181 
	C400.752533,96.698967 400.747437,97.310760 400.742371,97.922546 
	C367.032501,97.922546 333.322632,97.922546 299.612793,97.922546 
	C299.589661,97.310753 299.566559,96.698959 299.543427,96.087166 
	C305.196442,96.087166 310.849457,96.087166 317.001892,96.087173 
z"/>
<path fill="#4D4D4D" opacity="1.000000" stroke="none" 
	d="
M117.886040,96.087173 
	C121.050903,96.087181 123.734489,96.087181 127.717697,96.087181 
	C123.509163,99.218697 28.951540,99.402252 25.215651,96.087166 
	C55.945351,96.087166 86.675056,96.087166 117.886040,96.087173 
z"/>
<path fill="#555555" opacity="1.000000" stroke="none" 
	d="
M253.314102,105.138901 
	C253.150085,99.780807 253.150085,94.818001 253.150085,89.549622 
	C257.032898,89.033951 261.296112,87.607796 263.546539,91.533501 
	C264.576050,93.329414 262.971466,96.635284 261.376923,99.194229 
	C262.400848,101.195389 263.424774,103.196548 264.448730,105.197708 
	C264.061981,105.518990 263.675262,105.840263 263.288513,106.161537 
	C261.192230,103.650154 259.095978,101.138763 257.120453,98.772049 
	C255.685837,101.435478 254.581970,103.484825 253.314102,105.138901 
M259.651398,96.633766 
	C260.283600,95.347008 260.915833,94.060249 261.548035,92.773499 
	C259.774750,92.095909 258.001495,91.418327 256.228210,90.740738 
	C256.499664,93.634621 253.621353,97.562111 259.651398,96.633766 
z"/>
<path fill="#4F4F4F" opacity="1.000000" stroke="none" 
	d="
M183.364258,102.556030 
	C182.276138,101.013847 181.404556,99.797340 179.704620,97.424652 
	C179.055481,101.275459 178.662903,103.604309 178.270325,105.933167 
	C177.792191,105.914940 177.314072,105.896713 176.835953,105.878487 
	C176.835953,100.534370 176.835953,95.190262 176.835953,89.437859 
	C180.078873,89.131851 184.324265,87.595627 186.596573,91.584732 
	C187.587860,93.324928 186.087448,96.484467 185.718628,98.999435 
	C185.290344,98.985390 184.862076,98.971352 184.433807,98.957314 
	C185.451584,101.085167 186.469345,103.213028 187.487122,105.340889 
	C187.097977,105.602303 186.708847,105.863716 186.319702,106.125130 
	C185.406738,105.043991 184.493759,103.962852 183.364258,102.556030 
M181.131058,96.898636 
	C182.379761,95.726471 183.628448,94.554306 184.877151,93.382133 
	C183.149200,92.428680 181.421234,91.475227 179.693283,90.521782 
	C179.277847,90.917511 178.862427,91.313248 178.447006,91.708977 
	C179.063034,93.449455 179.679047,95.189934 181.131058,96.898636 
z"/>
<path fill="#4F4F4F" opacity="1.000000" stroke="none" 
	d="
M281.920929,104.984848 
	C281.788757,99.437218 281.788757,94.296616 281.788757,89.156021 
	C282.417542,89.131584 283.046356,89.107147 283.675140,89.082710 
	C283.886444,91.190331 284.097748,93.297943 284.335541,95.669769 
	C286.389404,95.669769 288.465332,95.669769 290.791840,95.669769 
	C291.017792,93.505997 291.241852,91.360214 291.465912,89.214432 
	C292.002502,89.229286 292.539124,89.244148 293.075714,89.259010 
	C294.191528,94.703888 293.596069,100.205452 293.462738,105.691704 
	C292.864746,105.753502 292.266724,105.815308 291.668701,105.877106 
	C291.373871,103.517662 291.079071,101.158211 290.736389,98.415947 
	C288.890442,98.415947 286.822571,98.415947 284.055969,98.415947 
	C284.055969,100.120346 284.205597,102.052132 283.964050,103.933693 
	C283.892334,104.492332 282.720734,104.909760 281.920929,104.984848 
z"/>
<path fill="#4D4D4D" opacity="1.000000" stroke="none" 
	d="
M230.936874,105.000732 
	C230.800430,102.617752 230.800430,100.642563 230.800430,98.364677 
	C228.400482,98.364677 226.345749,98.364677 223.901779,98.364677 
	C223.815948,99.728294 223.788651,101.153206 223.618011,102.560745 
	C223.480377,103.696045 223.169724,104.810371 222.935837,105.933998 
	C222.510925,105.880180 222.086029,105.826363 221.661118,105.772545 
	C221.661118,100.295753 221.661118,94.818970 221.661118,89.342178 
	C222.054077,89.260246 222.447037,89.178322 222.839996,89.096390 
	C223.257019,91.240021 223.674042,93.383644 224.133087,95.743301 
	C226.100876,95.743301 228.200974,95.743301 230.412415,95.743301 
	C230.681152,93.427704 230.932465,91.262276 231.183777,89.096855 
	C231.712631,89.113297 232.241470,89.129730 232.770309,89.146172 
	C232.770309,94.548264 232.772705,99.950378 232.700302,105.351501 
	C232.699966,105.377777 231.638977,105.389832 230.936874,105.000732 
z"/>
<path fill="#474747" opacity="1.000000" stroke="none" 
	d="
M170.377014,104.482513 
	C166.822327,106.751945 163.616425,106.714813 161.073654,103.772194 
	C158.161606,100.402206 157.854218,96.148346 160.170090,92.650757 
	C161.431427,90.745796 164.643509,89.242538 167.028671,89.163971 
	C171.471268,89.017662 174.123032,94.207390 172.872406,99.846031 
	C172.529678,101.391258 171.429291,102.768433 170.377014,104.482513 
M164.065277,91.619652 
	C160.787735,94.246094 160.812195,97.665115 162.244705,101.055580 
	C163.349289,103.669922 166.001862,105.279953 168.111786,102.906570 
	C169.697922,101.122375 170.304993,97.913124 170.243484,95.364929 
	C170.173035,92.446518 168.156601,90.546257 164.065277,91.619652 
z"/>
<path fill="#474747" opacity="1.000000" stroke="none" 
	d="
M142.374817,99.469933 
	C141.105408,98.921410 140.123947,98.635666 139.142487,98.349930 
	C139.166534,97.975067 139.190582,97.600204 139.214645,97.225342 
	C141.002380,97.134705 142.790115,97.044075 145.067352,96.928627 
	C144.460541,100.293922 147.009476,104.613495 142.166275,105.460899 
	C139.595993,105.910606 135.941635,104.620071 133.944702,102.819588 
	C131.130936,100.282654 131.777298,94.037544 134.332016,91.300735 
	C136.923660,88.524368 140.051575,88.192947 143.379868,89.894753 
	C143.849060,90.134659 144.102539,90.796402 145.088120,92.097633 
	C143.295456,91.723579 142.449112,91.601349 141.634766,91.367592 
	C138.201553,90.382156 135.976761,91.906693 135.209702,95.068138 
	C134.393539,98.431969 134.502197,101.998856 138.448959,103.488548 
	C141.688843,104.711433 143.180359,103.147926 142.374817,99.469933 
z"/>
<path fill="#4F4F4F" opacity="1.000000" stroke="none" 
	d="
M246.936188,92.219940 
	C247.127563,90.905060 247.318207,90.037811 247.508850,89.170555 
	C248.042206,89.195526 248.575546,89.220490 249.108902,89.245453 
	C248.893509,93.789398 249.054672,98.403084 248.233780,102.834869 
	C247.986771,104.168457 245.022614,105.798378 243.276718,105.829956 
	C241.529022,105.861557 238.494400,104.335464 238.210327,103.019989 
	C237.247513,98.561478 237.252945,93.893867 236.888412,89.306152 
	C237.490295,89.227257 238.092178,89.148354 238.694046,89.069458 
	C239.011185,89.983238 239.546677,90.883415 239.604614,91.813339 
	C239.779861,94.626343 239.411911,97.526230 239.982895,100.239197 
	C240.269196,101.599487 241.981705,103.231865 243.343445,103.575569 
	C244.140121,103.776657 246.201096,101.838516 246.488174,100.586426 
	C247.070587,98.046158 246.834259,95.318176 246.936188,92.219940 
z"/>
<path fill="#4F4F4F" opacity="1.000000" stroke="none" 
	d="
M209.547333,101.318436 
	C212.425095,102.376167 215.069107,103.065613 217.470642,103.691841 
	C215.666977,106.368835 212.213577,107.035912 209.084671,104.691025 
	C205.451263,101.968040 204.945618,94.835197 208.129715,91.219704 
	C210.848495,88.132584 214.518738,88.149094 217.351730,90.914886 
	C214.950912,91.656067 211.527145,91.740265 209.978394,93.486984 
	C208.645920,94.989746 209.452667,98.389297 209.547333,101.318436 
z"/>
<path fill="#4D4D4D" opacity="1.000000" stroke="none" 
	d="
M195.049744,94.909225 
	C196.301392,92.628479 197.406509,90.686981 198.511642,88.745483 
	C198.999252,89.009041 199.486862,89.272598 199.974457,89.536156 
	C198.712784,92.282372 197.218323,94.950081 196.257996,97.797913 
	C195.380432,100.400238 195.080933,103.197472 194.379791,106.627335 
	C192.284180,100.277618 190.495926,94.859200 188.707672,89.440781 
	C188.982239,89.235588 189.256805,89.030388 189.531372,88.825195 
	C191.101639,91.147339 192.670715,93.470284 194.255432,95.782516 
	C194.275482,95.811752 194.522018,95.734505 194.615219,95.652702 
	C194.736237,95.546448 194.809433,95.385750 195.049744,94.909225 
z"/>
<path fill="#474747" opacity="1.000000" stroke="none" 
	d="
M266.960388,100.437454 
	C267.147797,97.580742 266.853424,94.902077 267.776367,92.744026 
	C269.779388,88.060562 275.358307,87.627625 277.771210,91.357231 
	C275.663300,91.613327 273.144531,91.359093 271.280548,92.344002 
	C270.050903,92.993729 269.309174,95.380135 269.139313,97.068451 
	C268.646088,101.971283 271.049866,103.415001 278.527405,103.079330 
	C274.803192,107.895515 270.385437,107.039474 266.960388,100.437454 
z"/>
<path fill="#606060" opacity="1.000000" stroke="none" 
	d="
M148.268875,92.452637 
	C148.552185,91.010689 148.834351,90.014824 149.116531,89.018959 
	C149.577576,89.036781 150.038620,89.054604 150.499664,89.072418 
	C150.499664,93.798851 150.499664,98.525276 150.499664,103.289986 
	C153.588669,103.591942 155.779419,103.806099 157.970169,104.020248 
	C157.982437,104.558685 157.994705,105.097122 158.006973,105.635559 
	C155.016571,105.777046 152.026169,105.918526 148.267746,106.096352 
	C148.267746,101.411629 148.267746,97.155174 148.268875,92.452637 
z"/>
<path fill="#F0F0F0" opacity="1.000000" stroke="none" 
	d="
M123.567787,57.221146 
	C114.903297,43.515633 125.712433,26.663769 138.050430,23.613461 
	C155.314789,19.345219 170.100616,35.444317 166.730789,50.674194 
	C164.733276,59.701824 159.060608,66.431190 149.744461,68.741661 
	C141.401550,70.810768 133.619507,69.366821 127.652863,62.430866 
	C126.300438,60.858723 125.095284,59.159882 123.567787,57.221146 
M158.995987,44.723621 
	C158.231842,42.452469 157.816071,39.980083 156.641174,37.946220 
	C152.354385,30.525417 142.338120,28.579750 134.914673,33.642052 
	C128.145706,38.258038 125.703743,47.932835 131.389877,55.283852 
	C135.345352,60.397491 142.908005,62.762737 149.089752,60.807922 
	C154.746246,59.019203 158.936768,52.589031 158.995987,44.723621 
z"/>
<path fill="#FDFDFD" opacity="1.000000" stroke="none" 
	d="
M83.870834,22.560001 
	C90.853210,26.008194 93.474686,30.630507 92.032303,36.481056 
	C90.446739,42.912365 83.825867,46.044968 72.242302,45.652779 
	C72.242302,37.817482 72.242302,29.959484 72.242302,21.377226 
	C76.061623,21.715460 79.780350,22.044786 83.870834,22.560001 
z"/>
<path fill="#FDFDFD" opacity="1.000000" stroke="none" 
	d="
M331.327637,39.674126 
	C332.662933,35.677235 333.375000,31.772085 335.294891,28.597399 
	C341.615692,18.145477 354.973389,18.308409 360.714355,29.080021 
	C366.238617,39.445042 366.129028,50.270172 360.033875,60.456921 
	C354.093292,70.385345 342.442078,70.583389 335.879669,61.055805 
	C331.544434,54.761684 330.502991,47.592884 331.327637,39.674126 
z"/>
<path fill="#F5F6F6" opacity="1.000000" stroke="none" 
	d="
M259.253021,96.721436 
	C253.621353,97.562111 256.499664,93.634621 256.228210,90.740738 
	C258.001495,91.418327 259.774750,92.095909 261.548035,92.773499 
	C260.915833,94.060249 260.283600,95.347008 259.253021,96.721436 
z"/>
<path fill="#F5F6F6" opacity="1.000000" stroke="none" 
	d="
M180.713074,96.914520 
	C179.679047,95.189934 179.063034,93.449455 178.447006,91.708977 
	C178.862427,91.313248 179.277847,90.917511 179.693283,90.521782 
	C181.421234,91.475227 183.149200,92.428680 184.877151,93.382133 
	C183.628448,94.554306 182.379761,95.726471 180.713074,96.914520 
z"/>
<path fill="#F5F6F6" opacity="1.000000" stroke="none" 
	d="
M164.416550,91.423355 
	C168.156601,90.546257 170.173035,92.446518 170.243484,95.364929 
	C170.304993,97.913124 169.697922,101.122375 168.111786,102.906570 
	C166.001862,105.279953 163.349289,103.669922 162.244705,101.055580 
	C160.812195,97.665115 160.787735,94.246094 164.416550,91.423355 
z"/>
<path fill="#404040" opacity="1.000000" stroke="none" 
	d="
M158.996216,45.165100 
	C158.936768,52.589031 154.746246,59.019203 149.089752,60.807922 
	C142.908005,62.762737 135.345352,60.397491 131.389877,55.283852 
	C125.703743,47.932835 128.145706,38.258038 134.914673,33.642052 
	C142.338120,28.579750 152.354385,30.525417 156.641174,37.946220 
	C157.816071,39.980083 158.231842,42.452469 158.996216,45.165100 
M141.789261,40.813625 
	C137.998444,41.757484 137.185852,44.875717 138.231659,47.688255 
	C138.989166,49.725483 141.599808,52.268623 143.479279,52.348579 
	C145.262802,52.424458 147.742050,49.928188 148.900970,47.964359 
	C151.142441,44.166183 148.175659,40.936169 141.789261,40.813625 
z"/>
<path fill="#F0F0F0" opacity="1.000000" stroke="none" 
	d="
M142.210114,40.768997 
	C148.175659,40.936169 151.142441,44.166183 148.900970,47.964359 
	C147.742050,49.928188 145.262802,52.424458 143.479279,52.348579 
	C141.599808,52.268623 138.989166,49.725483 138.231659,47.688255 
	C137.185852,44.875717 137.998444,41.757484 142.210114,40.768997 
z"/>
</svg>